<svg 
 xmlns="http://www.w3.org/2000/svg"
 xmlns:xlink="http://www.w3.org/1999/xlink"
 width="218px" height="76px">
<path fill-rule="evenodd"  fill="rgb(8, 8, 8)"
 d="M9.987,0.009 L207.985,0.009 C213.508,0.009 217.985,4.485 217.985,10.008 L217.985,66.009 C217.985,71.531 213.508,76.008 207.985,76.008 L9.987,76.008 C4.464,76.008 -0.013,71.531 -0.013,66.009 L-0.013,10.008 C-0.013,4.485 4.464,0.009 9.987,0.009 Z"/>
<text kerning="auto" font-family="Myriad Hebrew" fill="rgb(0, 0, 0)" font-size="18px" x="79px" y="55.0619999999999px"><tspan font-size="18px" font-family="Epilogue" fill="#FFFFFF">App&#32;Store</tspan></text>
<text kerning="auto" font-family="Myriad Hebrew" fill="rgb(0, 0, 0)" font-size="14px" x="76px" y="32.0320000000002px"><tspan font-size="14px" font-family="Epilogue" fill="#FFFFFF">Download&#32;From</tspan></text>
<path fill-rule="evenodd"  fill="rgb(255, 255, 255)"
 d="M66.1000,46.881 C66.126,48.856 65.707,49.738 64.581,51.488 C63.010,53.930 60.797,56.972 58.050,56.993 C55.613,57.020 54.985,55.373 51.677,55.392 C48.368,55.409 47.680,57.022 45.237,56.999 C42.493,56.974 40.395,54.228 38.824,51.788 C34.434,44.965 33.970,36.953 36.679,32.692 C38.606,29.666 41.646,27.898 44.500,27.898 C47.406,27.898 49.235,29.524 51.642,29.524 C53.976,29.524 55.398,27.892 58.758,27.892 C61.303,27.892 63.998,29.308 65.916,31.747 C59.629,35.265 60.647,44.428 66.1000,46.881 ZM50.466,28.142 C50.068,25.931 51.089,23.656 52.330,22.124 C53.691,20.435 56.025,19.138 58.022,18.998 C58.357,21.306 57.432,23.567 56.210,25.167 C54.903,26.883 52.649,28.211 50.466,28.142 Z"/>
</svg>