<svg 
 xmlns="http://www.w3.org/2000/svg"
 xmlns:xlink="http://www.w3.org/1999/xlink"
 width="218px" height="76px">
<path fill-rule="evenodd"  fill="rgb(125, 41, 230)"
 d="M9.987,0.009 L207.985,0.009 C213.508,0.009 217.985,4.485 217.985,10.008 L217.985,66.009 C217.985,71.531 213.508,76.008 207.985,76.008 L9.987,76.008 C4.464,76.008 -0.013,71.531 -0.013,66.009 L-0.013,10.008 C-0.013,4.485 4.464,0.009 9.987,0.009 Z"/>
<text kerning="auto" font-family="Myriad Hebrew" fill="rgb(0, 0, 0)" font-size="18px" x="63px" y="55.0619999999999px"><tspan font-size="18px" font-family="Epilogue" fill="#FFFFFF">Google&#32;Play</tspan></text>
<text kerning="auto" font-family="Myriad Hebrew" fill="rgb(0, 0, 0)" font-size="14px" x="59px" y="32.0320000000002px"><tspan font-size="14px" font-family="Epilogue" fill="#FFFFFF">Download&#32;From</tspan></text>
<path fill-rule="evenodd"  fill="rgb(255, 255, 255)"
 d="M53.126,41.117 L49.868,42.923 L43.863,37.358 L48.763,32.434 L53.124,34.852 C54.298,35.504 54.998,36.674 54.1000,37.984 C54.1000,39.294 54.298,40.464 53.126,41.117 ZM28.883,23.469 C30.044,22.825 31.416,22.810 32.585,23.459 L47.063,31.491 L42.491,36.086 L28.883,23.469 ZM27.487,51.168 C27.173,50.633 26.1000,50.021 26.1000,49.379 L26.1000,26.592 C26.1000,25.930 27.190,25.306 27.522,24.759 L41.172,37.413 L27.487,51.168 ZM48.147,43.880 L32.585,52.512 C32.001,52.837 31.362,52.998 30.728,52.998 C30.070,52.998 29.417,52.818 28.822,52.477 L42.543,38.686 L48.147,43.880 Z"/>
</svg>